<svg version="1.1" id="Layer_1" xmlns="http://www.w3.org/2000/svg" xmlns:xlink="http://www.w3.org/1999/xlink" x="0px" y="0px"
	 width="100%" viewBox="0 0 816 816" enable-background="new 0 0 816 816" xml:space="preserve">
<path fill="#000000" opacity="1.000000" stroke="none" 
	d="
M465.705200,640.673584 
	C455.042297,655.422546 445.446594,670.432190 436.665955,685.960266 
	C428.012848,701.262939 420.041443,716.926147 412.507507,733.448425 
	C409.679443,730.910339 409.074524,728.058777 407.914215,725.602722 
	C389.405701,686.424194 367.601593,649.318726 339.115387,616.444885 
	C327.416016,602.943481 314.761749,590.424255 300.184998,579.957397 
	C294.650970,575.983643 295.235718,570.265076 301.480408,567.728027 
	C310.865845,563.914856 320.419556,564.903442 327.898956,571.136780 
	C334.945496,577.009277 341.084167,577.461731 348.986481,573.945801 
	C356.910675,570.420105 364.916962,567.141174 372.206360,562.389709 
	C397.096252,546.165649 404.296112,526.954163 397.318481,498.147369 
	C388.059509,459.922485 362.639587,437.988281 326.611969,426.265350 
	C303.927429,418.884064 280.448486,415.004791 257.151917,410.299988 
	C236.260269,406.080902 215.563110,401.256409 195.968307,392.459656 
	C162.203796,377.301575 143.410538,350.403809 135.752014,315.202667 
	C127.017586,275.056213 135.839859,237.267548 152.939713,200.891205 
	C156.308884,193.723999 159.537140,186.409225 165.463013,179.075348 
	C166.556229,185.166748 167.380112,190.100021 168.332260,195.008423 
	C175.834656,233.684570 187.932388,270.619293 208.850616,304.371918 
	C225.007660,330.442169 248.075729,348.926086 273.519958,365.000671 
	C295.659698,378.987610 319.013245,390.792175 342.008972,403.237762 
	C351.977966,408.633087 361.752167,414.341492 371.349243,420.362671 
	C387.981201,430.797424 399.299438,445.791382 407.981659,463.054413 
	C409.175812,465.428741 410.518066,467.728546 412.135620,470.692932 
	C416.224426,462.787964 420.084198,455.375244 424.552216,448.306671 
	C434.477600,432.604401 448.934570,422.121582 464.655945,413.007324 
	C491.032562,397.715851 518.633484,384.637390 544.649780,368.698730 
	C562.738281,357.616913 580.109253,345.585205 594.964172,330.274902 
	C613.386108,311.288147 625.576721,288.424652 635.532654,264.260803 
	C646.481628,237.686920 653.745361,210.075226 657.879517,181.635880 
	C657.942993,181.199188 658.299683,180.805099 658.644104,180.156586 
	C661.163269,180.785767 661.760986,183.060577 662.757263,184.805130 
	C677.784607,211.119370 688.128113,239.096573 691.053528,269.375732 
	C694.245361,302.412170 687.961487,333.390198 668.331543,360.808868 
	C654.125061,380.652039 633.674500,391.465179 611.199097,399.099609 
	C588.431458,406.833282 564.723267,410.534302 541.267029,415.308105 
	C519.391907,419.760101 497.650604,424.586334 477.393555,434.489502 
	C447.691803,449.010040 431.372192,473.194458 425.301666,505.181519 
	C420.148956,532.332581 431.529846,549.260803 452.853271,563.033386 
	C462.029938,568.960571 472.056000,572.911316 482.378784,576.312927 
	C485.775421,577.432190 488.375336,577.174927 490.981323,574.760864 
	C496.108765,570.011108 502.010712,566.919189 509.102173,566.043030 
	C514.064575,565.429993 518.738159,565.945435 523.230103,568.013855 
	C528.387024,570.388550 529.221008,576.188049 524.588257,579.433594 
	C511.670807,588.483093 500.586548,599.499512 489.883301,610.957581 
	C481.228210,620.223083 473.478607,630.227539 465.705200,640.673584 
M408.603973,613.073181 
	C400.847137,618.985107 393.090302,624.897034 385.056488,631.020020 
	C394.084930,644.315796 402.704742,657.009766 412.001495,670.700623 
	C421.001617,656.405029 429.262573,643.283569 437.616333,630.014648 
	C429.685822,623.975464 422.245178,618.382141 414.898895,612.667603 
	C412.866608,611.086731 411.094177,610.790039 408.603973,613.073181 
M371.856750,599.302734 
	C370.569489,599.942444 369.282196,600.582092 366.870514,601.780518 
	C382.674622,601.799988 396.048615,597.899170 408.099121,589.885254 
	C411.137726,587.864563 413.136780,587.815491 415.994202,589.976379 
	C419.983337,592.993164 424.590942,595.091858 429.272369,596.843994 
	C437.344635,599.865356 445.609619,602.024597 454.516449,601.148987 
	C437.498535,592.394287 421.101929,583.074219 412.069214,564.623047 
	C403.287506,581.799011 388.775726,591.433777 371.856750,599.302734 
z"/>
<path fill="#000000" opacity="1.000000" stroke="none" 
	d="
M710.111572,336.122559 
	C715.848328,327.183075 721.383728,318.543549 727.048767,309.701752 
	C730.395935,312.189056 731.194336,315.309723 732.369934,318.161591 
	C739.568787,335.625214 741.363770,353.958435 740.090881,372.541138 
	C738.551392,395.013824 732.860596,416.517822 722.318787,436.530823 
	C710.108826,459.710632 693.322266,478.350525 668.687073,488.805206 
	C650.250427,496.629303 630.884583,497.533783 611.299622,495.749176 
	C582.633301,493.137054 557.486145,480.267944 532.097717,468.132080 
	C523.543274,464.042969 514.808838,460.656799 505.320007,458.888031 
	C490.296295,456.087585 471.214661,470.254303 468.315857,486.439514 
	C466.134369,498.619568 471.058655,507.860107 480.398071,515.136658 
	C490.616913,523.098389 502.726471,526.067993 515.245972,527.462952 
	C519.176025,527.900818 520.246948,529.464478 520.366638,533.089478 
	C520.843018,547.520996 515.920837,553.779846 501.573456,556.536621 
	C481.517975,560.390137 463.631409,553.606201 454.219543,538.571411 
	C447.516266,527.863464 444.689758,515.981079 443.706116,503.562805 
	C441.556030,476.419159 456.442932,458.694702 476.996796,444.469421 
	C494.842316,432.118561 514.458130,425.663452 536.608276,426.617371 
	C566.292480,427.895813 595.396973,424.223083 623.331604,413.354279 
	C657.372131,400.109802 682.761230,376.569183 702.951599,346.787048 
	C705.286621,343.342712 707.591431,339.877899 710.111572,336.122559 
z"/>
<path fill="#000000" opacity="1.000000" stroke="none" 
	d="
M121.787872,465.195862 
	C99.237587,439.707550 87.923073,409.952301 84.519447,376.707489 
	C82.463234,356.623688 84.480217,337.220917 91.587090,318.339722 
	C93.343880,313.672394 93.752113,312.983978 96.453491,310.239258 
	C99.798882,312.635468 101.373756,316.392853 103.474548,319.690918 
	C116.455994,340.070526 129.197983,360.584991 146.525146,377.779327 
	C172.524490,403.579376 203.914734,418.104095 239.844421,423.847748 
	C257.547974,426.677765 275.297852,426.562225 293.113159,426.749115 
	C324.728912,427.080811 349.667267,441.289276 369.295441,465.332001 
	C381.447052,480.216675 382.301636,497.591766 378.724030,515.580627 
	C376.411896,527.206360 371.968628,537.715637 363.505096,546.467285 
	C350.977814,559.421021 325.156738,559.652893 313.327728,553.798523 
	C305.620575,549.984192 301.103363,538.159851 303.914825,530.007080 
	C304.709137,527.703674 306.497009,527.853455 308.315002,527.595215 
	C319.408173,526.019165 330.320892,523.824219 340.003693,517.717102 
	C347.584045,512.936035 353.464478,506.751160 355.571747,497.767822 
	C358.231689,486.428284 354.018585,477.124786 346.186493,469.287933 
	C336.433777,459.529327 324.866699,456.263153 311.413147,460.368622 
	C299.075928,464.133453 287.710663,470.104645 276.156219,475.639191 
	C258.228821,484.226288 239.972824,491.960510 220.145920,494.791260 
	C183.004929,500.093964 149.078415,494.148132 121.787872,465.195862 
z"/>
<path fill="#000000" opacity="1.000000" stroke="none" 
	d="
M353.964966,387.227448 
	C322.759186,378.002472 293.274963,365.955475 266.838257,347.309296 
	C243.132797,330.589478 223.791183,310.121460 212.258408,283.058350 
	C202.715469,260.664673 200.169205,237.387939 202.481827,213.214203 
	C204.833694,188.630295 212.397415,166.082870 226.400421,145.812027 
	C245.093445,118.751923 270.978424,101.418983 301.849792,91.049614 
	C302.632477,90.786720 303.459259,90.609924 304.279297,90.521317 
	C304.729919,90.472626 305.209534,90.692322 305.640686,90.783524 
	C306.543915,92.755966 305.065674,94.025131 304.446655,95.462929 
	C293.191071,121.606323 285.614136,148.642776 283.156860,177.138763 
	C278.319214,233.237946 294.642242,283.259705 326.027069,329.031769 
	C341.851471,352.110291 360.772980,372.397949 382.443268,390.117554 
	C383.533813,391.009338 385.108246,391.628723 385.164886,394.201782 
	C374.577057,392.788757 364.448029,390.154297 353.964966,387.227448 
z"/>
<path fill="#000000" opacity="1.000000" stroke="none" 
	d="
M593.297974,139.747498 
	C609.915955,161.489441 618.777283,185.747696 621.532532,212.586670 
	C625.459045,250.837006 616.746216,285.294495 592.241455,315.294739 
	C574.307800,337.250214 551.522583,352.965454 526.413635,365.522064 
	C499.915558,378.773346 472.015350,387.958374 442.949768,393.639771 
	C441.817474,393.861115 440.709015,394.386658 439.560791,393.595306 
	C439.087860,391.690887 440.686951,391.001312 441.762939,390.114105 
	C468.089325,368.405945 490.262482,343.084595 507.888794,313.853424 
	C525.388306,284.832489 536.886353,253.607162 540.552185,219.848236 
	C545.283691,176.275848 536.991333,134.755325 519.373657,94.890335 
	C518.848877,93.702972 517.930908,92.623184 518.384338,90.089485 
	C548.502930,99.014709 573.552368,114.963036 593.297974,139.747498 
z"/>
</svg>