<svg version="1.1" id="Layer_1" xmlns="http://www.w3.org/2000/svg" xmlns:xlink="http://www.w3.org/1999/xlink" x="0px" y="0px"
	 width="100%" viewBox="0 0 816 816" enable-background="new 0 0 816 816" xml:space="preserve">
<path fill="#000000" opacity="1.000000" stroke="none" 
	d="
M494.479675,393.418823 
	C504.715515,399.641937 514.634949,405.671509 524.195679,411.483063 
	C524.371399,414.416931 522.470764,414.891571 521.181519,415.768860 
	C510.581177,422.981689 499.895111,430.069763 489.349823,437.361572 
	C486.024597,439.660858 482.890442,439.183990 479.423401,438.017670 
	C459.915466,431.455200 440.379089,424.977417 420.507263,419.027588 
	C433.232544,430.195099 446.037354,441.273560 458.664154,452.551361 
	C476.668304,468.631989 473.125854,460.985931 473.098114,484.860016 
	C473.088867,492.804535 472.342041,500.748199 471.941711,508.511841 
	C469.395355,509.754791 467.725891,508.325806 465.995789,507.479553 
	C455.221619,502.209442 444.513275,496.802582 433.689941,491.636261 
	C430.061310,489.904205 428.077972,487.453064 427.275848,483.455505 
	C423.548798,464.881104 419.606598,446.349823 415.731659,427.805176 
	C415.394684,426.192535 414.986237,424.594788 414.275238,421.554413 
	C409.784912,443.939240 405.540375,464.927734 401.399872,485.936737 
	C400.826447,488.846161 400.011871,491.494537 397.300262,492.996185 
	C386.371155,499.048584 375.410126,505.043457 364.439911,511.021149 
	C363.595062,511.481537 362.634064,511.938538 361.174164,511.326874 
	C360.776215,508.826141 360.141846,506.103882 359.940094,503.349945 
	C359.125885,492.234985 358.522034,481.104431 357.674255,469.992279 
	C357.368469,465.984070 358.662018,463.070496 361.711090,460.393280 
	C375.606079,448.192841 389.346710,435.816467 403.133575,423.492981 
	C404.345245,422.409912 405.489960,421.251923 406.317322,419.302032 
	C404.352295,419.880798 402.363953,420.390778 400.425934,421.049042 
	C383.563385,426.776642 366.653748,432.373688 349.884521,438.363373 
	C344.119385,440.422546 339.290741,440.485199 333.965454,436.862427 
	C325.573608,431.153534 316.664917,426.206085 308.003571,420.889709 
	C306.626190,420.044281 304.899780,419.544830 303.975128,417.009796 
	C307.535461,414.546173 311.257477,411.922974 315.028046,409.371552 
	C322.753662,404.143738 330.611908,399.103699 338.200287,393.684875 
	C341.873871,391.061615 345.268768,390.942322 349.411316,392.341644 
	C367.230286,398.360748 385.131287,404.136963 403.005707,409.991760 
	C403.752960,410.236542 404.532471,410.382996 406.393646,410.851044 
	C401.251556,404.241638 395.293823,400.047760 389.960388,395.252350 
	C379.926056,386.230286 369.725372,377.390717 359.487518,368.599121 
	C356.728363,366.229767 355.508759,363.583282 355.597961,359.923767 
	C355.857727,349.263184 355.834717,338.595947 355.988251,327.932281 
	C356.021118,325.650391 355.836670,323.265442 357.171661,321.328003 
	C359.427277,320.567291 360.913513,321.936707 362.488647,322.704895 
	C373.568665,328.108734 384.588715,333.635773 395.684357,339.006866 
	C398.960266,340.592682 400.699890,342.892670 401.431213,346.531799 
	C405.552307,367.039246 409.873596,387.506470 414.343201,409.030243 
	C418.907745,386.445282 423.314697,364.968445 427.526581,343.453461 
	C428.172516,340.153992 429.801758,338.057007 432.588867,336.531952 
	C442.672729,331.014252 452.711517,325.413208 462.832672,319.965027 
	C467.400635,317.506134 468.000458,318.051819 468.352722,323.326782 
	C469.161530,335.437958 469.938202,347.556274 471.093903,359.636719 
	C471.525513,364.148499 470.024353,367.256653 466.778320,370.116394 
	C451.531799,383.548615 436.373322,397.080811 421.168793,410.560822 
	C420.802979,410.885101 420.266174,411.016449 420.341064,411.971008 
	C440.159271,405.222321 460.041840,398.653748 479.753540,391.607147 
	C485.154633,389.676361 489.703003,389.575012 494.479675,393.418823 
z"/>
<path fill="#000000" opacity="1.000000" stroke="none" 
	d="
M414.127625,70.037361 
	C416.884644,70.533676 417.174469,72.774513 418.043243,74.487000 
	C433.329803,104.619667 447.347900,135.428680 464.985443,164.314148 
	C475.916718,182.216599 487.481812,199.731720 498.717560,217.449142 
	C499.721985,219.033020 501.899963,220.723755 500.227509,222.715515 
	C498.704529,224.529251 496.507690,223.145782 494.636444,222.611420 
	C489.041107,221.013519 483.425903,219.477554 477.871124,217.748260 
	C474.908264,216.825867 472.915863,217.470032 471.060425,220.079407 
	C447.715576,252.909973 431.229370,288.796875 422.654388,328.224457 
	C420.783112,336.828461 419.081024,345.469269 417.306061,354.094208 
	C416.939117,355.877167 416.849579,358.115967 414.529175,358.255829 
	C412.063354,358.404419 411.998169,356.159790 411.595581,354.365631 
	C406.209045,330.358551 400.901337,306.356995 391.750488,283.368591 
	C382.705200,260.645508 370.032074,239.933258 357.513031,219.096741 
	C356.005188,216.587082 354.183075,216.800888 352.011169,217.437943 
	C345.627899,219.310211 339.268311,221.265991 332.860809,223.050446 
	C331.227966,223.505188 329.262787,224.980408 327.795044,223.050613 
	C326.347687,221.147705 328.164459,219.629257 329.088806,218.163162 
	C342.053436,197.599976 355.648590,177.419342 367.675903,156.285187 
	C382.831512,129.654053 396.320526,102.130951 410.451721,74.952240 
	C411.356628,73.211784 411.840851,71.155510 414.127625,70.037361 
M396.133453,189.634018 
	C393.653625,192.097885 391.319397,194.734329 388.656342,196.981049 
	C385.472626,199.667053 385.137360,202.163223 387.074280,206.014496 
	C397.121765,225.992767 405.136749,246.720169 408.963470,268.891052 
	C410.233826,276.251221 411.675568,283.581818 413.038971,290.925934 
	C415.904633,280.591095 417.945618,270.340790 420.300415,260.163055 
	C424.787933,240.767288 432.662384,222.609329 441.107483,204.691101 
	C442.406860,201.934158 442.618011,200.021194 440.149261,197.732056 
	C432.217896,190.377533 424.448639,182.845108 416.728577,175.267487 
	C414.403717,172.985504 412.616241,173.152115 410.436157,175.393845 
	C405.910736,180.047318 401.243530,184.562943 396.133453,189.634018 
z"/>
<path fill="#000000" opacity="1.000000" stroke="none" 
	d="
M678.862305,298.806519 
	C660.827087,325.362427 647.000793,353.857361 632.407410,381.923584 
	C630.794922,385.024658 629.247559,388.159668 627.625122,391.255432 
	C626.939514,392.563507 626.321289,394.234619 624.474609,393.980164 
	C622.640564,393.727478 622.454956,391.872192 622.099976,390.501343 
	C620.516296,384.386597 619.056641,378.239502 617.574707,372.098694 
	C616.902466,369.312897 615.879883,367.325104 612.341187,367.286987 
	C605.022705,367.208160 597.707581,366.721985 590.393555,366.353729 
	C552.917847,364.466736 516.885010,371.514099 481.693695,383.836365 
	C477.296173,385.376160 472.846436,386.768951 468.404938,388.179688 
	C467.013916,388.621552 465.386871,389.452209 464.283173,387.881470 
	C463.037262,386.108337 464.290405,384.776245 465.556000,383.593781 
	C472.249725,377.339600 478.916687,371.056396 485.647400,364.842224 
	C510.360260,342.025757 530.492065,315.687531 546.392151,286.073212 
	C549.227356,280.792511 552.105957,275.523773 555.242004,270.420044 
	C557.307617,267.058533 557.385132,264.806244 553.942871,262.056580 
	C549.147400,258.225922 544.943420,253.649216 540.539612,249.337372 
	C539.283447,248.107529 537.559570,247.041397 538.237915,243.900757 
	C543.887512,243.900757 549.771423,243.587021 555.612000,243.957031 
	C576.886536,245.304733 598.174561,246.169479 619.489929,245.964142 
	C649.457947,245.675430 679.359924,243.590637 709.295410,242.406815 
	C710.943115,242.341660 712.856628,241.769806 713.812378,243.549988 
	C714.778015,245.348557 713.117554,246.632263 712.240417,247.971130 
	C701.197571,264.826843 690.131592,281.667450 678.862305,298.806519 
M577.552307,337.759033 
	C588.858215,335.917175 600.238342,334.684387 611.648071,333.740540 
	C613.932190,333.551605 615.199707,332.898010 615.776917,330.428894 
	C618.307129,319.605896 620.937256,308.802429 623.794006,298.061829 
	C624.656555,294.818573 623.683167,293.598755 620.660339,292.792816 
	C610.552307,290.097656 600.428833,287.421539 590.454468,284.282806 
	C586.415100,283.011688 584.510925,284.291351 582.395447,287.521637 
	C571.889893,303.563416 560.371826,318.825470 546.001587,331.674957 
	C537.591736,339.194824 528.935669,346.439240 519.469055,354.601929 
	C538.878601,347.454590 557.305054,340.987152 577.552307,337.759033 
z"/>
<path fill="#000000" opacity="1.000000" stroke="none" 
	d="
M316.247955,494.225769 
	C297.944336,515.270874 284.891968,539.282288 271.651489,563.180054 
	C270.304779,565.610718 271.025757,567.059265 272.866730,568.743896 
	C277.903961,573.353149 282.823364,578.092896 287.726349,582.846008 
	C288.869171,583.953918 290.637573,585.058289 289.883270,586.978882 
	C289.092987,588.990967 287.025452,588.344910 285.474365,588.289307 
	C266.676331,587.615540 247.883972,586.774353 229.083954,586.167908 
	C203.261093,585.334900 177.484756,586.656128 151.710464,588.065369 
	C140.907486,588.656006 130.088608,588.960938 119.275444,589.354675 
	C117.638618,589.414246 115.928955,589.684570 114.344734,588.604553 
	C113.200943,585.931458 115.371231,584.303772 116.565117,582.478333 
	C133.972641,555.862732 152.421722,529.891113 167.950638,502.104187 
	C178.669724,482.923737 188.412979,463.197968 198.591141,443.715271 
	C199.207932,442.534607 199.782593,441.330780 200.433884,440.169708 
	C201.084000,439.010742 201.714539,437.702423 203.362701,437.883759 
	C205.065765,438.071198 205.283569,439.579590 205.602921,440.828369 
	C207.249603,447.267761 208.875595,453.713165 210.419418,460.177795 
	C211.140930,463.199097 212.784271,464.682343 216.016327,464.659943 
	C230.001938,464.563049 243.937759,466.262787 257.946045,465.726532 
	C287.272980,464.603882 315.593018,458.468414 343.268311,448.974335 
	C348.463135,447.192261 353.691742,445.504059 358.937500,443.878143 
	C360.567596,443.372894 362.585999,442.019501 363.816681,444.318024 
	C364.946777,446.428680 363.078613,447.726593 361.784149,448.915100 
	C351.358185,458.487885 340.629395,467.743561 330.863251,478.009186 
	C325.930695,483.194000 321.259369,488.627380 316.247955,494.225769 
M242.524841,547.986084 
	C243.438507,546.816101 244.438095,545.702881 245.252884,544.467651 
	C256.846039,526.892212 269.871124,510.523163 285.781342,496.617462 
	C292.930328,490.369141 300.238434,484.302917 308.429321,477.342560 
	C295.603363,481.891174 284.066254,486.112274 272.197388,489.349854 
	C254.001846,494.313293 235.363464,496.440277 216.661621,498.155304 
	C214.241180,498.377289 212.646133,498.958130 212.009491,501.613525 
	C209.338501,512.753845 206.540466,523.863953 203.732742,534.970886 
	C203.220474,536.997375 203.822464,538.145569 205.829056,538.694031 
	C217.825775,541.973511 229.667236,545.835510 242.524841,547.986084 
z"/>
<path fill="#000000" opacity="1.000000" stroke="none" 
	d="
M153.075897,243.675171 
	C181.150146,245.592285 208.769409,246.693527 236.431396,245.646866 
	C252.566254,245.036362 268.693542,244.218491 284.821106,243.430496 
	C286.651459,243.341080 288.810760,242.576401 289.730377,244.624802 
	C290.701538,246.787888 288.417053,247.739182 287.170868,248.961533 
	C282.650024,253.395859 278.103729,257.804199 273.563354,262.218597 
	C272.074158,263.666504 270.965454,264.954803 272.198090,267.382263 
	C284.279510,291.173920 296.624298,314.762695 314.208862,335.170837 
	C326.970123,349.981201 340.972015,363.495392 355.652039,376.351868 
	C357.782257,378.217468 359.889526,380.114929 361.915802,382.091583 
	C363.275543,383.418030 365.589874,384.639893 364.170685,386.987213 
	C362.868683,389.140747 360.813568,387.635681 359.190369,387.156860 
	C352.329437,385.133087 345.482849,383.052795 338.677429,380.849976 
	C306.904510,370.565491 274.394592,365.300629 240.940811,366.197998 
	C232.779434,366.416962 224.608047,366.396484 216.443527,366.298065 
	C213.238861,366.259399 211.672668,367.348419 211.000595,370.641510 
	C209.738831,376.823944 208.002319,382.909485 206.462006,389.035004 
	C205.991028,390.907990 206.260559,393.568726 203.859726,393.936707 
	C201.073090,394.363892 200.684982,391.422211 199.745087,389.640045 
	C191.974014,374.905396 184.236389,360.152496 176.594666,345.350372 
	C162.578598,318.200958 145.340073,293.020081 129.022629,267.276642 
	C124.741539,260.522552 120.298164,253.871506 115.976555,247.142807 
	C115.119949,245.809113 113.478050,244.483841 114.589798,242.707367 
	C115.645699,241.020126 117.630058,241.616028 119.208664,241.701248 
	C130.341339,242.302094 141.468643,243.002411 153.075897,243.675171 
M214.403656,291.104065 
	C212.312927,291.658203 210.243744,292.319977 208.126923,292.743774 
	C203.901047,293.589783 202.892029,295.676758 204.171310,299.913239 
	C206.764420,308.500671 208.810425,317.253510 211.074982,325.939972 
	C213.185638,334.036102 213.173080,334.243805 221.114319,334.572968 
	C246.473160,335.623993 270.814728,341.214966 294.381989,350.477325 
	C298.204285,351.979584 302.129456,353.220184 306.007080,354.581757 
	C294.106140,343.252533 281.563324,333.069458 270.871063,320.858887 
	C261.524170,310.184784 252.899826,298.975281 244.969849,287.235199 
	C242.763046,283.968109 240.531433,282.981201 236.656067,284.324524 
	C229.588608,286.774353 222.341446,288.705841 214.403656,291.104065 
z"/>
<path fill="#000000" opacity="1.000000" stroke="none" 
	d="
M389.261597,554.303467 
	C399.677887,529.599792 405.414978,503.981506 410.573608,478.201019 
	C410.950714,476.316589 410.687286,473.577576 413.279663,473.522949 
	C416.149078,473.462402 416.016693,476.329376 416.473633,478.377258 
	C421.940247,502.877594 427.553589,527.290527 437.044708,550.697693 
	C445.924530,572.597229 458.510406,592.397949 470.259491,612.700745 
	C471.630219,615.069458 473.344147,615.262146 475.706970,614.531311 
	C482.221497,612.516541 488.760498,610.575500 495.327393,608.739624 
	C496.810059,608.325134 498.568817,607.004333 499.976929,608.650330 
	C501.611725,610.561279 499.792999,612.106201 498.895172,613.538330 
	C487.045135,632.440491 474.701630,651.048218 463.337433,670.236511 
	C446.618622,698.465942 432.508972,728.118347 417.241150,757.139954 
	C416.279083,758.968628 415.855988,761.334351 413.348236,761.954346 
	C411.055725,761.227600 410.691895,759.067383 409.826202,757.343262 
	C395.709595,729.227600 382.524261,700.607422 366.494720,673.510681 
	C355.139954,654.316345 342.748718,635.735168 330.817535,616.881897 
	C330.461487,616.319275 330.017120,615.805359 329.716370,615.216370 
	C328.769867,613.362793 326.304047,611.540100 327.719666,609.472351 
	C329.376099,607.052856 331.971283,608.948730 334.087891,609.519592 
	C339.386719,610.948730 344.703644,612.350708 349.904205,614.089905 
	C353.175110,615.183777 355.082733,614.367554 356.934723,611.487183 
	C368.729187,593.143616 381.154968,575.169556 389.261597,554.303467 
M435.815765,638.311462 
	C436.648407,637.496765 437.391571,636.556519 438.328857,635.888672 
	C442.824066,632.685669 442.803101,629.273315 440.250061,624.459534 
	C436.210052,616.842041 432.973175,608.781433 429.660034,600.798889 
	C421.334473,580.739624 418.313629,559.361633 414.246735,538.146973 
	C410.123199,569.636475 400.532410,599.391602 386.408081,627.715210 
	C385.030579,630.477600 385.689362,632.267090 387.789459,634.230286 
	C395.567444,641.501282 403.317444,648.806885 410.895844,656.283997 
	C413.362183,658.717346 415.117310,658.739014 417.514923,656.305298 
	C423.352661,650.379639 429.363678,644.624695 435.815765,638.311462 
z"/>
<path fill="#000000" opacity="1.000000" stroke="none" 
	d="
M505.084473,486.914886 
	C493.645996,474.262329 481.018280,463.378265 468.607178,452.265747 
	C467.490051,451.265533 466.346619,450.287842 465.302002,449.215363 
	C464.179657,448.063019 462.440765,446.962830 463.513245,445.034668 
	C464.611847,443.059601 466.346466,444.010315 467.935913,444.505341 
	C475.721710,446.930145 483.533325,449.272797 491.307495,451.733978 
	C522.162598,461.502258 553.707886,466.533264 586.125977,465.789642 
	C594.453674,465.598572 602.789368,465.591919 611.118591,465.707825 
	C614.539307,465.755432 616.226868,464.541840 616.937073,461.079315 
	C618.204895,454.898468 619.904480,448.805481 621.455933,442.683960 
	C621.925598,440.830750 621.600891,438.221741 624.094177,437.814972 
	C626.707214,437.388702 627.073486,440.093445 627.940674,441.733795 
	C638.060547,460.875702 647.697571,480.285919 658.275391,499.169708 
	C674.401672,527.958679 692.995300,555.241516 710.791016,583.007019 
	C711.060669,583.427795 711.365723,583.828857 711.602722,584.266968 
	C712.444092,585.822327 714.335815,587.238464 713.318115,589.166077 
	C712.265747,591.159119 710.009766,590.360535 708.302246,590.265930 
	C687.865845,589.133179 667.430298,587.976624 647.003113,586.690002 
	C625.198669,585.316650 603.407532,585.714539 581.608032,586.759399 
	C568.305359,587.397034 554.995178,587.877930 541.687622,588.411072 
	C540.363281,588.464172 538.853271,588.600769 538.198669,587.112671 
	C537.524719,585.580750 538.774170,584.628113 539.707458,583.728882 
	C544.505920,579.105713 549.283325,574.457642 554.195496,569.957275 
	C556.220764,568.101868 556.582947,566.456055 555.342407,563.881836 
	C541.977905,536.147766 526.712036,509.671600 505.084473,486.914886 
M578.883789,538.664917 
	C580.380920,540.867615 581.997131,543.000305 583.343994,545.291382 
	C584.900269,547.938477 586.560791,548.872559 589.851440,547.823730 
	C599.987427,544.593079 610.228943,541.675232 620.500427,538.898254 
	C624.075623,537.931763 624.929382,536.441956 623.904480,532.837097 
	C621.132812,523.088135 618.550720,513.274109 616.298401,503.393585 
	C615.292542,498.980743 613.006470,497.461304 608.702881,497.329987 
	C588.992371,496.728485 569.672913,493.625305 550.924072,487.420044 
	C540.777466,484.061798 530.727356,480.412079 520.633728,476.893860 
	C542.949341,494.541260 562.155212,514.932068 578.883789,538.664917 
z"/>
</svg>