<svg version="1.1" id="Layer_1" xmlns="http://www.w3.org/2000/svg" xmlns:xlink="http://www.w3.org/1999/xlink" x="0px" y="0px"
	 width="100%" viewBox="0 0 512 512" enable-background="new 0 0 512 512" xml:space="preserve">
<path fill="#000000" opacity="1.000000" stroke="none" 
	d="
M229.474854,414.524963 
	C216.082306,402.357025 199.823502,395.444244 184.716721,386.705292 
	C164.661453,375.103760 144.347000,363.985016 127.703674,347.393860 
	C112.669899,332.407227 101.047028,315.466095 95.703819,294.658844 
	C95.451790,293.677399 95.244682,292.720886 93.925179,292.015533 
	C91.533821,294.048309 89.094658,296.258850 86.513145,298.288361 
	C80.673599,302.879181 74.364716,304.165039 67.372925,300.935791 
	C60.840561,297.918793 54.789753,294.115356 48.835789,290.117859 
	C45.733074,288.034668 45.316822,286.087952 48.421970,283.526459 
	C53.570843,279.279083 58.816750,275.211395 64.556595,271.764282 
	C71.931442,267.335266 79.030441,267.408722 86.026482,272.483826 
	C87.909630,273.849915 89.800934,275.204742 92.361092,277.049347 
	C90.348839,246.242859 91.058617,216.351410 110.889946,189.812637 
	C105.210388,189.284286 100.513252,188.918762 95.833405,188.397949 
	C84.081772,187.090073 75.755501,181.160965 70.975349,170.193436 
	C66.773956,160.553772 63.263023,150.697952 60.432449,140.573578 
	C59.406250,136.903061 60.689877,135.464783 64.222290,135.700073 
	C77.723511,136.599319 91.089439,138.329269 103.601189,143.861786 
	C110.758537,147.026642 115.011131,152.951569 117.150963,160.308609 
	C118.716316,165.690506 119.842926,171.200012 121.240463,176.963455 
	C124.309982,175.908066 126.196533,173.494156 128.458008,171.722015 
	C145.452362,158.405075 164.637817,149.932571 186.175720,149.218018 
	C207.349091,148.515533 227.712219,152.546402 244.076080,167.847855 
	C245.047867,168.756561 246.025101,169.675369 246.880890,170.689789 
	C255.816620,181.281845 255.268112,188.319275 244.881699,197.673431 
	C241.863464,200.391693 238.997681,200.165482 236.845627,196.915253 
	C229.477600,185.787430 218.916122,179.638412 206.083939,177.429138 
	C188.919647,174.473999 171.809158,174.113968 155.858398,182.602890 
	C135.223114,193.584930 123.456520,211.918304 119.731339,233.993561 
	C113.203262,272.678680 125.391167,305.628540 155.615540,331.200073 
	C172.807739,345.745667 193.404160,354.141937 214.171051,361.971283 
	C232.534668,368.894623 246.933868,380.201416 256.093781,397.784637 
	C256.845825,399.228302 257.509033,400.849243 259.395630,401.300629 
	C261.597504,400.684113 262.418671,398.729095 263.310211,397.010315 
	C272.215057,379.843079 286.427307,368.979614 304.173462,362.154846 
	C319.103882,356.412903 333.924347,350.410126 347.706848,342.145905 
	C386.238617,319.041656 403.795532,284.549896 400.385651,240.314407 
	C398.473785,215.511749 381.359009,182.623993 345.595551,176.927460 
	C327.277527,174.009705 308.979950,174.818893 292.685516,185.769928 
	C288.740387,188.421371 285.895172,192.108765 283.025665,195.801498 
	C279.176422,200.754990 276.893921,200.830627 272.680450,196.092789 
	C271.026886,194.233459 269.619598,192.148026 268.170807,190.115189 
	C264.772919,185.347504 264.834015,180.681442 268.198303,175.789764 
	C278.676727,160.554138 294.006470,153.809280 311.472290,150.717255 
	C342.704773,145.188080 369.576935,154.794525 393.574554,174.392731 
	C394.696167,175.308685 395.612396,176.628647 397.523804,176.796555 
	C399.060883,174.024918 399.133179,170.834030 399.668274,167.807129 
	C402.113312,153.975906 408.970154,144.240723 423.364349,140.729630 
	C433.419434,138.276947 443.513916,136.253159 453.847382,135.739655 
	C458.777985,135.494644 459.509216,136.613358 458.252472,141.357559 
	C456.032227,149.738983 452.765503,157.765503 449.925079,165.939651 
	C444.154358,182.546783 431.888702,188.936142 415.324799,189.208740 
	C413.659576,189.236160 411.994110,189.263901 410.330078,189.327087 
	C410.013611,189.339127 409.703522,189.519241 408.251617,189.994934 
	C427.434265,216.114319 429.138794,245.895050 426.203033,277.385620 
	C428.655884,275.554749 430.250275,274.432678 431.770721,273.218079 
	C438.645203,267.726288 445.847229,266.984406 453.573120,271.430542 
	C459.665924,274.936859 465.311707,279.021057 470.583160,283.662292 
	C473.164551,285.935089 473.551941,287.850189 470.355652,289.937683 
	C464.634399,293.674225 458.877411,297.304199 452.741089,300.368073 
	C444.905579,304.280365 437.955627,303.086151 431.476349,297.572540 
	C429.336182,295.751343 427.236969,293.881989 425.262390,292.159698 
	C424.171112,292.155304 423.837860,292.806488 423.677277,293.420563 
	C415.180145,325.919830 393.957947,348.629059 367.056000,366.928619 
	C350.634705,378.098877 333.353180,387.934448 315.635132,396.752319 
	C290.638184,409.192657 274.182373,428.486389 264.498596,454.252136 
	C263.432434,457.088867 263.462006,462.040924 259.307098,461.772491 
	C255.582687,461.531982 255.452820,456.793701 254.246628,453.846649 
	C248.328491,439.386993 241.104202,425.786224 229.474854,414.524963 
z"/>
<path fill="#000000" opacity="1.000000" stroke="none" 
	d="
M327.893127,269.899414 
	C331.228302,258.714966 330.474152,248.121475 326.100311,237.810791 
	C321.843689,227.776443 314.235870,222.446579 303.237762,222.254059 
	C299.575684,222.189941 295.910339,222.335159 292.247070,222.309113 
	C288.858307,222.285019 287.985138,220.606644 289.797302,217.852432 
	C296.720917,207.329605 306.056976,200.129288 318.837769,198.752945 
	C345.834747,195.845627 369.344208,213.739517 373.956390,240.461090 
	C375.428833,248.992035 372.380981,256.599762 368.170441,263.717651 
	C364.553192,269.832611 360.466125,275.669647 356.033020,282.480316 
	C367.358704,284.224152 377.144257,287.338989 379.587555,300.681519 
	C373.949432,299.773285 368.963043,298.968506 363.976105,298.167053 
	C353.002014,296.403351 342.827301,298.637238 333.314880,304.259277 
	C319.985504,312.137238 306.664215,320.029419 293.289886,327.830597 
	C290.320496,329.562622 287.376038,331.497711 283.631470,332.081573 
	C281.717468,328.850372 283.579712,326.544861 285.213470,324.365967 
	C288.924469,319.416779 293.541138,315.303192 297.917664,310.967438 
	C307.985718,300.993164 317.981537,290.942169 324.464813,278.082550 
	C325.733643,275.565765 326.682404,272.887634 327.893127,269.899414 
z"/>
<path fill="#000000" opacity="1.000000" stroke="none" 
	d="
M159.703293,277.207672 
	C156.550797,272.485107 153.465790,268.133301 150.689819,263.592560 
	C141.381577,248.366837 143.577866,233.728073 153.369339,219.678665 
	C167.348068,199.621155 194.576340,192.466904 214.343445,203.557480 
	C220.268982,206.882050 225.080048,211.421326 228.673584,217.185699 
	C231.065018,221.021759 230.436539,222.224197 226.024673,222.322906 
	C222.528946,222.401123 219.027359,222.194977 215.530579,222.251709 
	C204.722748,222.427078 197.150528,227.624100 193.000320,237.491821 
	C186.042603,254.034866 188.300095,269.643097 198.067871,284.490906 
	C205.273117,295.443481 214.491623,304.572418 223.690872,313.755676 
	C227.222458,317.281128 230.653397,320.925293 233.891571,324.719025 
	C235.454453,326.550018 237.021973,328.716675 235.568298,331.718597 
	C232.767258,332.069366 230.516495,330.563354 228.299225,329.270935 
	C214.917801,321.471130 201.392166,313.895355 188.282318,305.659607 
	C174.810440,297.196472 160.625916,295.951721 145.588654,299.598969 
	C144.300720,299.911316 142.990311,300.149963 141.677704,300.331329 
	C141.228409,300.393372 140.740341,300.174805 139.708160,299.976501 
	C140.114395,294.349915 143.153763,290.516815 147.363663,287.338501 
	C151.640854,284.109344 157.023849,284.043121 161.790421,282.590027 
	C162.514648,280.158051 160.812302,278.984253 159.703293,277.207672 
z"/>
<path fill="#000000" opacity="1.000000" stroke="none" 
	d="
M277.680450,81.365448 
	C281.796173,87.674149 285.082092,94.029594 288.501007,100.325127 
	C298.161652,118.114059 295.450928,134.178604 282.594849,149.210770 
	C277.171814,155.551773 271.364349,161.494476 265.459076,167.372406 
	C261.977478,170.837860 258.727905,171.131836 254.979553,167.960815 
	C245.257309,159.735962 236.371231,150.825790 230.190430,139.495865 
	C224.040466,128.222473 223.226715,116.937531 228.734848,105.085266 
	C235.942535,89.575958 245.371628,75.490540 255.470520,61.803631 
	C258.287964,57.985199 260.381989,57.966980 263.423523,61.644962 
	C268.522369,67.810776 273.147552,74.334930 277.680450,81.365448 
z"/>
</svg>