<svg version="1.1" id="Layer_1" xmlns="http://www.w3.org/2000/svg" xmlns:xlink="http://www.w3.org/1999/xlink" x="0px" y="0px"
	 width="100%" viewBox="0 0 816 816" enable-background="new 0 0 816 816" xml:space="preserve">
<path fill="#000000" opacity="1.000000" stroke="none" 
	d="
M487.273926,652.640625 
	C508.881500,658.426514 530.378601,659.059631 552.014709,656.076721 
	C608.457153,648.295166 658.604004,624.671326 706.165894,594.584351 
	C707.480286,593.752930 708.694153,592.358032 711.586243,593.202820 
	C666.073792,665.536682 603.825439,716.174805 522.849365,742.596558 
	C439.149475,769.907166 356.665283,764.828613 275.906494,730.088318 
	C302.659088,732.619690 329.376068,733.846680 356.206726,730.927612 
	C383.170441,727.994141 409.203705,721.884277 435.023743,710.200867 
	C420.694489,705.646851 407.477753,701.365723 394.567444,696.212097 
	C364.546814,684.228271 335.933868,669.776794 311.296356,648.451660 
	C282.277466,623.334290 265.812073,591.167297 258.690094,553.851074 
	C255.166641,535.389771 254.771530,516.858765 257.694122,498.272949 
	C257.973633,496.495361 258.103729,494.686920 259.594025,493.377136 
	C261.571930,493.774475 262.143860,495.501251 263.093414,496.788788 
	C268.670715,504.351013 275.197754,510.980469 282.627625,516.715942 
	C304.222748,533.386414 328.415802,531.373657 351.432770,514.951965 
	C370.771973,501.154236 380.937744,481.214905 385.299927,458.473022 
	C391.947357,423.816772 384.987335,391.895599 363.133423,363.856781 
	C346.011658,341.889343 322.790222,329.564178 296.019073,323.420471 
	C285.296722,320.959778 274.353577,319.362671 263.398285,319.473846 
	C214.694870,319.968109 176.914368,340.597992 150.744568,381.882355 
	C133.340057,409.338959 124.189308,439.841187 118.391594,471.488556 
	C113.098824,500.379730 111.237236,529.578552 111.390038,558.915527 
	C111.416885,564.070068 112.018303,569.219482 112.220268,574.376526 
	C112.280624,575.917725 112.939240,577.661194 110.841797,579.697021 
	C71.124580,505.282806 58.697159,426.913239 75.107826,344.748901 
	C92.548012,257.430084 138.325775,187.455078 209.647095,133.352402 
	C210.526810,136.545456 208.602005,137.592972 207.603821,138.909348 
	C185.162216,168.505600 167.680679,200.681030 156.739868,236.279129 
	C153.023865,248.369843 150.448624,260.720001 148.498901,273.201660 
	C148.232681,274.906006 147.541763,277.201813 149.541702,278.209747 
	C151.637024,279.265808 152.794739,277.038757 154.047974,275.891418 
	C178.477219,253.525711 204.660095,233.604523 234.039871,218.086746 
	C257.764130,205.556091 282.747803,197.226822 309.777466,196.970398 
	C351.003021,196.579300 388.093964,208.881470 420.468536,234.713684 
	C421.597076,235.614151 423.075592,236.310028 423.258148,238.629440 
	C418.210449,239.509995 413.081970,240.296829 407.999725,241.314606 
	C398.609802,243.195023 389.765961,246.544479 381.651154,251.679733 
	C366.247742,261.427429 359.534119,276.191437 358.379150,293.672485 
	C356.385254,323.850311 370.156219,347.087524 392.243256,365.879791 
	C416.693207,386.682465 445.338409,396.108002 477.392639,393.535278 
	C502.313263,391.535126 523.873291,381.102661 542.282837,364.359375 
	C567.905212,341.056091 584.519043,312.600922 589.482300,278.063995 
	C593.830627,247.805481 586.047668,219.924011 571.009094,193.838409 
	C552.445312,161.638092 526.133850,136.552765 496.947449,114.216591 
	C474.798950,97.266502 451.229187,82.539528 426.381042,69.863335 
	C425.239502,69.280960 423.845337,68.953629 423.045654,66.544525 
	C464.011810,67.135880 503.168793,75.014397 540.808594,89.887543 
	C621.385193,121.726898 681.883728,176.327362 722.540466,252.735794 
	C742.777283,290.767975 754.798645,331.404236 758.846252,374.413757 
	C747.816528,349.919830 735.442322,326.288940 719.565186,304.629456 
	C703.652466,282.921448 685.385559,263.577179 662.630188,247.317642 
	C665.150146,260.469452 667.815369,272.447815 669.694702,284.548248 
	C675.371826,321.102600 677.936462,357.853912 668.707031,394.103394 
	C657.458557,438.282257 630.419189,471.054382 591.897522,494.740082 
	C583.782043,499.730011 575.172485,503.714722 566.283813,507.103760 
	C565.111938,507.550629 563.928955,508.501160 562.432800,507.574402 
	C561.557251,505.635651 562.976868,504.147034 563.671692,502.569305 
	C568.070557,492.580353 570.867859,482.146393 571.595154,471.284729 
	C573.113281,448.610809 561.922180,432.700012 543.409973,421.537994 
	C518.513306,406.526489 492.168060,407.221497 466.014069,417.354797 
	C427.117920,432.425079 401.701752,460.069397 392.976379,501.359039 
	C387.807251,525.819946 391.789825,549.677612 401.233978,572.695496 
	C416.487396,609.872009 441.820068,636.793335 480.191498,650.484009 
	C482.386749,651.267395 484.644379,651.876038 487.273926,652.640625 
z"/>
</svg>