<svg version="1.1" id="Layer_1" xmlns="http://www.w3.org/2000/svg" xmlns:xlink="http://www.w3.org/1999/xlink" x="0px" y="0px"
	 width="100%" viewBox="0 0 800 800" enable-background="new 0 0 800 800" xml:space="preserve">
<path fill="#000000" opacity="1.000000" stroke="none" 
	d="
M135.449326,473.518433 
	C122.340569,455.805237 110.250542,437.851105 99.552475,418.979553 
	C97.408722,415.197937 95.469826,411.341248 94.424942,407.089111 
	C93.008690,401.325684 93.575226,395.859192 96.763420,390.751190 
	C113.211319,364.399231 132.115097,339.875397 152.256073,316.277802 
	C154.746719,313.359680 157.516342,310.693756 161.107361,309.077148 
	C168.228333,305.871338 173.186249,308.185394 175.066925,315.749237 
	C179.859573,335.024597 186.469833,353.678986 194.167648,371.962524 
	C212.904495,416.465546 236.454269,458.417664 262.030090,499.264496 
	C302.760864,564.315247 347.978851,626.136047 396.708923,685.407104 
	C398.612976,687.723022 400.597321,689.972961 402.543976,692.253845 
	C406.431549,696.808960 408.468109,696.891785 412.631592,692.400757 
	C424.534302,679.561523 435.751984,666.133606 446.327118,652.190430 
	C480.873169,606.641846 509.969757,557.737549 535.511414,506.665955 
	C536.564575,504.560211 538.423462,502.488312 537.061340,499.538910 
	C533.756287,499.840637 531.836853,502.321106 529.682129,504.194977 
	C492.730194,536.331299 455.841431,568.540466 418.899933,600.688904 
	C411.337769,607.269897 404.872284,607.437866 398.244110,600.490479 
	C354.871765,555.029114 315.160614,506.731567 284.235840,451.725891 
	C281.546600,446.942535 279.250427,441.933624 276.870148,436.982117 
	C272.759338,428.430817 273.594208,423.111267 280.146362,416.094849 
	C294.040131,401.216797 309.219055,387.688354 324.433929,374.209961 
	C342.144104,358.521027 360.050110,343.054474 378.774200,328.572754 
	C386.437866,322.645508 391.066467,322.919891 398.114594,329.548401 
	C404.567017,335.616669 410.354980,342.287750 415.246643,349.678345 
	C420.822205,358.102203 420.326355,363.044983 412.884338,369.889648 
	C392.772797,388.386841 372.773163,406.997620 353.439301,426.313080 
	C345.785126,433.960022 344.967377,438.188049 350.431396,447.513336 
	C364.540802,471.593292 380.293335,494.476135 400.608398,513.862061 
	C406.934753,519.899109 409.001312,520.146240 416.441589,515.583313 
	C438.802612,501.869843 459.281342,485.586151 479.316498,468.750763 
	C505.234497,446.972046 530.021851,423.983521 552.693481,398.789764 
	C555.032715,396.190308 557.189819,393.422821 559.590149,390.883240 
	C565.108582,385.044464 570.450684,385.525055 574.506531,392.579529 
	C578.653076,399.791809 582.519287,407.184326 586.143738,414.674286 
	C599.292297,441.846100 611.220276,469.507172 618.472534,498.939392 
	C619.624512,503.614380 620.374878,508.405151 621.037476,513.180359 
	C622.415894,523.114319 620.479492,532.274109 614.939331,540.817932 
	C601.897278,560.930969 585.769592,578.453491 569.185852,595.557129 
	C521.595825,644.639099 470.964355,690.455444 418.934296,734.753479 
	C410.819824,741.662109 403.934784,742.122742 395.454346,735.708435 
	C367.126312,714.281921 340.310638,691.046692 314.204376,666.991272 
	C265.636871,622.239136 219.335388,575.277466 176.452469,525.009460 
	C162.284256,508.401276 148.561386,491.429901 135.449326,473.518433 
z"/>
<path fill="#000000" opacity="1.000000" stroke="none" 
	d="
M416.239136,206.754440 
	C454.408356,247.014481 489.134552,289.530823 518.102966,336.551880 
	C523.958740,346.056885 529.413208,355.804474 534.102112,365.949646 
	C539.011536,376.571777 538.324036,380.825409 530.346497,389.326965 
	C520.417542,399.908051 509.755341,409.744324 498.963684,419.416779 
	C477.998566,438.207581 456.804535,456.739227 434.736298,474.245178 
	C425.059265,481.921631 420.638702,481.878326 411.936371,473.282288 
	C405.885498,467.305389 400.152161,461.011932 395.720581,453.688538 
	C391.060455,445.987427 392.031769,440.222443 398.700226,434.208710 
	C418.871857,416.017761 438.480408,397.228821 457.888092,378.230682 
	C465.963623,370.325592 466.613525,366.050201 460.845703,356.182495 
	C447.010223,332.512329 431.348145,310.168274 411.571747,291.005371 
	C404.822815,284.465820 401.944275,284.359680 393.914093,289.364685 
	C372.083679,302.971069 352.012024,318.946838 332.357239,335.466888 
	C308.362549,355.634674 285.253448,376.748962 263.992371,399.818512 
	C260.042786,404.104065 256.317474,408.595917 252.474289,412.979980 
	C247.015564,419.207001 240.721680,418.823029 236.778717,411.471863 
	C218.233597,376.896912 202.217377,341.286835 192.435501,303.089661 
	C187.815323,285.048340 190.905731,269.305634 202.498596,254.364288 
	C221.872986,229.393799 243.687210,206.740097 266.102173,184.623596 
	C304.897888,146.344421 345.368195,109.883087 386.805237,74.485825 
	C402.578918,61.011265 406.101257,60.714905 422.433868,73.446220 
	C460.984406,103.496460 497.100861,136.305389 532.248596,170.235062 
	C561.277832,198.258255 589.265259,227.275986 616.023132,257.451324 
	C650.327087,296.136505 683.061768,336.059418 709.358521,380.824707 
	C711.890442,385.134796 714.390686,389.469574 716.151794,394.170166 
	C718.628357,400.780365 718.505005,407.223846 714.687073,413.350708 
	C697.640198,440.706543 678.166626,466.250031 656.885559,490.425842 
	C655.277283,492.252899 653.092651,493.738647 650.908081,494.862122 
	C643.691284,498.573517 638.637451,496.309021 636.600586,488.454773 
	C625.263611,444.738068 606.091736,404.326569 584.554810,364.915070 
	C544.329285,291.304657 496.426056,222.820221 445.145538,156.613754 
	C433.722137,141.865387 421.780060,127.516937 409.986176,113.058243 
	C405.129791,107.104553 403.372040,107.004562 398.158722,112.662315 
	C374.275055,138.582123 353.290375,166.740799 334.021851,196.209305 
	C313.304169,227.894135 294.534698,260.700134 277.516205,294.511597 
	C274.694397,300.117828 274.710114,300.125732 275.043427,303.829224 
	C277.641785,304.465912 278.905579,302.366760 280.436951,301.039795 
	C317.326263,269.074005 354.173676,237.059891 391.063782,205.094971 
	C401.496033,196.055527 406.127808,196.375275 416.239136,206.754440 
z"/>
</svg>