<svg version="1.1" id="Layer_1" xmlns="http://www.w3.org/2000/svg" xmlns:xlink="http://www.w3.org/1999/xlink" x="0px" y="0px"
	 width="100%" viewBox="0 0 480 432" enable-background="new 0 0 480 432" xml:space="preserve">
<path fill="#000000" opacity="1.000000" stroke="none" 
	d="
M185.638977,310.414124 
	C205.557510,321.468384 226.717575,326.631439 248.995255,327.690338 
	C289.321838,329.607025 322.072723,295.750427 318.641327,255.679214 
	C315.256653,216.154129 276.186920,188.257385 237.529709,197.771423 
	C235.751999,198.208923 233.998306,198.743179 232.228119,199.212311 
	C222.500732,201.790298 214.549881,197.753296 211.014557,188.447891 
	C207.782227,179.940002 211.370590,170.891449 220.456909,167.077133 
	C242.958130,157.631439 265.677612,157.832016 287.842407,167.968063 
	C318.768677,182.110733 335.942566,206.530334 339.360168,240.332397 
	C341.810852,264.571198 333.680115,285.489532 318.148193,303.832520 
	C316.468597,305.816101 314.836945,307.840240 313.407013,310.049774 
	C320.482269,306.089600 325.890778,300.301971 330.792969,294.068298 
	C366.453400,248.722275 358.329865,181.742096 306.109009,147.893097 
	C264.116180,120.673775 205.961166,130.402390 175.327820,170.792328 
	C167.657074,180.906174 158.367615,182.777756 148.462067,176.205078 
	C142.928833,172.533554 140.726440,167.091095 142.226105,160.620667 
	C142.982193,157.358459 144.159714,154.255753 145.945221,151.392578 
	C164.343323,121.890106 190.872330,103.407082 224.309601,95.215462 
	C281.906860,81.105026 340.027191,111.071190 365.122467,163.405975 
	C399.575623,235.255936 356.794098,320.826782 278.299255,337.271515 
	C255.628876,342.020966 232.925583,340.738129 210.924515,332.857330 
	C198.827255,328.524078 189.597580,320.080078 181.091675,310.782806 
	C180.727844,310.385101 180.767075,309.618622 180.615952,309.013611 
	C182.763016,307.973358 183.911911,309.584473 185.638977,310.414124 
z"/>
<path fill="#000000" opacity="1.000000" stroke="none" 
	d="
M259.670166,266.400452 
	C255.707413,260.851471 250.418015,258.747711 244.243515,259.882507 
	C234.434357,261.685364 227.238159,267.374878 224.853394,277.117981 
	C222.246445,287.768860 225.442139,297.383148 233.865860,304.612061 
	C248.264114,316.968170 269.928741,315.417450 284.286407,301.371368 
	C285.958588,299.735474 287.191833,297.306580 289.920288,297.245667 
	C291.017883,298.543732 290.238068,299.346863 289.697479,300.146423 
	C276.305237,319.953796 251.004196,325.849152 230.072922,314.047455 
	C210.207672,302.846802 201.848145,277.690887 211.750381,256.899048 
	C219.078629,241.511902 231.462280,232.467957 248.798523,231.044357 
	C264.986969,229.715027 278.589691,235.136459 287.944641,248.437561 
	C294.419678,257.643951 298.412537,267.994904 291.446106,279.175079 
	C288.394409,284.072632 284.158081,287.029205 278.312408,286.817871 
	C271.775757,286.581604 266.895813,283.363068 264.111298,277.391632 
	C262.495483,273.926514 261.230499,270.297791 259.670166,266.400452 
z"/>
<path fill="#000000" opacity="1.000000" stroke="none" 
	d="
M141.867828,201.335983 
	C152.811981,199.447937 160.377365,203.745514 163.372223,213.181122 
	C165.940186,221.271774 162.074081,229.508118 153.905380,233.349243 
	C144.643021,237.704636 133.774261,233.754318 130.544891,224.131271 
	C127.511223,215.091293 130.116196,204.926605 141.867828,201.335983 
z"/>
<path fill="#000000" opacity="1.000000" stroke="none" 
	d="
M173.694519,260.881409 
	C179.297653,264.112335 181.981461,269.111267 181.106705,274.125397 
	C180.174026,279.471527 175.733261,284.010406 170.562225,284.902771 
	C166.279144,285.641907 160.761551,282.675934 158.029434,278.165802 
	C155.472397,273.944702 155.743835,268.667633 158.982010,264.626770 
	C162.769028,259.900970 167.665558,258.806854 173.694519,260.881409 
z"/>
</svg>