<svg version="1.1" id="Layer_1" xmlns="http://www.w3.org/2000/svg" xmlns:xlink="http://www.w3.org/1999/xlink" x="0px" y="0px"
	 width="100%" viewBox="0 0 736 688" enable-background="new 0 0 736 688" xml:space="preserve">
<path fill="#000000" opacity="1.000000" stroke="none" 
	d="
M361.435608,55.385597 
	C361.691986,53.128731 361.806000,51.298794 362.006561,49.478394 
	C362.180389,47.900814 361.606232,45.797295 363.656219,45.193604 
	C365.551636,44.635441 366.610321,46.393623 367.687927,47.613132 
	C380.641663,62.272797 391.090485,78.750366 401.844452,94.991745 
	C409.230621,106.146835 415.102173,118.062454 418.589478,131.071045 
	C422.859314,146.998901 419.340607,160.962112 408.456146,173.277557 
	C401.898804,180.696991 393.719421,186.265427 386.575439,192.991089 
	C371.527649,207.157715 359.792938,223.577774 354.651764,243.900635 
	C349.021973,266.155151 357.321960,284.019470 373.209167,299.179779 
	C373.980255,299.915588 374.810913,300.924286 376.496979,300.529358 
	C375.306152,296.296722 372.348267,293.051605 370.527466,289.236542 
	C361.966553,271.299103 364.608887,253.843796 373.075317,236.888382 
	C383.920776,215.168640 400.772675,198.794037 420.600647,185.251892 
	C423.764374,183.091125 426.962585,180.978897 430.186432,178.908951 
	C431.411011,178.122650 432.772247,176.912933 434.257385,178.093735 
	C435.657013,179.206619 435.089905,180.810516 434.654816,182.263580 
	C430.795868,195.151031 427.957550,208.280731 424.939087,221.384079 
	C419.294647,245.887192 423.412140,269.075775 433.632202,291.367249 
	C444.186340,314.387299 460.136261,333.586456 478.227997,351.081879 
	C479.151428,351.974915 479.965424,353.165466 481.615448,353.026276 
	C483.513885,351.429871 482.155029,349.701050 481.663910,348.071472 
	C478.910370,338.934662 473.337433,331.399902 467.497681,324.128204 
	C454.594421,308.061066 447.585663,290.102844 448.627502,269.255707 
	C449.050842,260.784943 451.426483,252.842072 454.795502,245.216827 
	C460.399170,232.533707 467.260956,220.552811 476.203735,209.869873 
	C477.121735,208.773254 477.987915,207.228851 479.815491,207.691681 
	C481.600189,208.143646 481.742615,209.803741 482.039429,211.264038 
	C489.192474,246.458130 504.765930,277.098328 530.835022,302.171692 
	C541.661865,312.585052 553.881836,321.396118 564.744751,331.707275 
	C592.732300,358.273346 614.023926,389.224121 621.562500,427.682526 
	C626.108521,450.874115 619.149902,472.018951 605.381592,491.179840 
	C589.402710,513.416992 567.928589,529.282654 545.655273,544.366760 
	C520.777283,561.214783 493.670166,574.175171 467.755157,589.213501 
	C447.076172,601.213318 428.295074,615.842041 409.498199,630.496155 
	C398.967163,638.706177 389.010590,647.539490 379.422241,656.781372 
	C375.873444,660.201904 373.610016,660.018555 369.843689,656.928711 
	C334.278870,627.751892 298.318542,599.080444 257.906677,576.670471 
	C225.995682,558.974548 194.199524,541.080200 164.024307,520.511841 
	C149.703415,510.750336 135.700821,500.593842 126.566360,485.124329 
	C116.457558,468.004700 114.246307,449.856567 118.318436,430.751740 
	C123.507156,406.408264 133.164047,383.827637 146.112091,362.642151 
	C157.516586,343.982178 170.988174,326.812195 184.623978,309.764404 
	C203.350052,286.352631 222.620789,263.321808 237.433487,237.078827 
	C240.947540,230.853119 243.853836,224.286255 247.121033,217.918045 
	C247.982040,216.239807 248.077530,213.904770 250.551376,213.333389 
	C252.869034,214.316559 252.125671,216.429260 252.176178,218.085358 
	C253.126282,249.235489 267.971069,272.842499 292.095520,291.283661 
	C313.765808,307.848846 338.560181,318.461426 363.752319,328.256073 
	C366.388123,329.280884 369.014008,330.333923 371.614014,331.445190 
	C371.999359,331.609863 372.215302,332.170776 372.530121,332.574646 
	C371.550903,335.019836 369.435333,334.171906 367.793915,334.251495 
	C345.322449,335.340973 323.419678,339.098114 303.201782,349.442902 
	C265.530121,368.718201 242.575638,398.830292 236.275116,441.171387 
	C231.839203,470.981750 242.424789,495.675446 261.319672,517.771301 
	C263.406647,520.211792 266.114441,522.281006 267.058197,525.567505 
	C265.229950,527.107788 263.609833,526.378052 262.198639,525.634460 
	C229.552124,508.431610 200.225677,487.546478 183.947449,452.849243 
	C175.897964,435.691681 174.596939,417.713287 178.921921,399.216003 
	C183.252808,380.693481 191.859375,364.377808 203.454010,349.476166 
	C204.515594,348.111786 206.264313,347.053436 206.145386,344.927490 
	C204.566635,343.891235 203.536118,345.140686 202.563461,345.837646 
	C186.647232,357.242767 171.469925,369.429779 161.148300,386.516846 
	C150.437637,404.247955 146.419189,423.049286 149.611176,443.901184 
	C154.085709,473.131531 171.458130,492.769470 194.538101,508.715271 
	C212.278519,520.972107 232.058350,529.612854 250.766815,540.152771 
	C275.725555,554.213867 301.743164,566.336731 326.140045,581.412354 
	C340.039398,590.001160 353.227814,599.649414 366.481537,609.172058 
	C370.688721,612.194946 373.607666,612.250366 377.860107,609.345032 
	C395.741425,597.127930 413.807190,585.176758 431.924347,573.309875 
	C456.487762,557.220642 482.952789,544.469849 508.450165,530.018372 
	C526.995483,519.507141 546.010132,509.706635 562.941284,496.614960 
	C586.374023,478.496002 599.707153,455.165771 597.792969,424.785278 
	C596.849426,409.809906 589.847534,397.114197 580.816467,385.478485 
	C571.821167,373.888855 560.514282,364.857117 548.516785,356.615265 
	C547.699036,356.053467 546.791626,355.601410 545.879639,355.205109 
	C545.302124,354.954132 544.638611,354.901245 543.412048,354.623108 
	C543.500671,360.146667 546.580688,364.278931 548.274658,368.772797 
	C554.592896,385.534241 558.941040,402.740967 560.006531,420.631348 
	C561.661133,448.414917 552.234863,472.657532 535.144226,494.077911 
	C517.034241,516.775879 493.271423,531.937012 467.009308,543.406860 
	C439.520538,555.412537 410.791595,562.054749 380.670746,561.020630 
	C349.527618,559.951294 320.716736,550.977173 294.926422,533.308044 
	C283.482391,525.467712 274.381531,515.460083 269.406769,502.077148 
	C259.132782,474.438568 275.514740,447.309174 300.797272,438.935028 
	C313.764618,434.639954 326.809113,436.831940 339.802795,438.984131 
	C341.249481,439.223724 342.665253,439.927948 343.326263,442.164703 
	C338.357910,445.379517 333.569214,449.131134 329.179016,453.373505 
	C310.668762,471.260712 306.629669,498.248169 319.376984,519.670288 
	C326.611694,531.828369 338.410034,537.549744 351.277130,541.179871 
	C372.340790,547.122498 393.493073,547.241394 414.783234,541.572021 
	C436.417175,535.810974 456.908325,528.012939 473.641693,512.488953 
	C490.229340,497.100098 499.792847,478.369415 500.864075,455.518127 
	C501.690613,437.885803 498.354828,421.091461 490.949036,405.139954 
	C483.634338,389.384644 471.646667,377.237915 458.933441,365.953552 
	C441.075378,350.102509 419.118439,341.369476 397.432434,332.346436 
	C375.467590,323.207336 353.003021,315.201874 332.438721,302.954041 
	C311.086609,290.237000 294.063507,273.694183 285.290863,249.858124 
	C277.490967,228.665131 279.066864,208.052643 289.441589,188.049759 
	C298.794098,170.017761 312.104584,154.766403 324.173920,138.648956 
	C339.151978,118.647087 352.053772,97.593750 357.947540,72.952812 
	C359.300903,67.294724 360.214752,61.531513 361.435608,55.385597 
z"/>
<path fill="#000000" opacity="1.000000" stroke="none" 
	d="
M408.906494,470.039124 
	C407.839264,440.820312 388.766754,418.279968 359.223145,410.898224 
	C338.884918,405.816498 319.317444,408.286560 300.397980,416.982361 
	C299.038574,417.607147 297.681549,418.244965 296.285492,418.777283 
	C295.868164,418.936432 295.321808,418.757233 294.924683,418.737549 
	C293.688568,417.773315 293.819031,416.643005 294.355042,415.534027 
	C304.032654,395.511597 316.845764,378.421967 338.526337,370.226654 
	C354.209106,364.298523 370.406769,362.600403 387.076202,365.460785 
	C404.075500,368.377777 420.126434,373.636963 433.263885,385.151611 
	C452.459625,401.976318 462.921783,423.091461 461.020905,449.013763 
	C460.065857,462.037476 453.066498,472.601135 443.297913,480.978973 
	C430.835114,491.667572 416.874359,500.013916 401.396271,505.691345 
	C399.684906,506.319061 398.011871,507.251526 395.221924,505.272552 
	C404.349426,495.536377 408.971283,483.859100 408.906494,470.039124 
z"/>
</svg>