<svg version="1.1" id="Layer_1" xmlns="http://www.w3.org/2000/svg" xmlns:xlink="http://www.w3.org/1999/xlink" x="0px" y="0px"
	 width="100%" viewBox="0 0 592 592" enable-background="new 0 0 592 592" xml:space="preserve">
<path fill="#000000" opacity="1.000000" stroke="none" 
	d="
M328.821716,189.185638 
	C329.074402,186.574463 329.567749,184.416672 329.494263,182.278366 
	C329.361938,178.428482 328.618896,174.951767 325.272369,172.112076 
	C319.392792,167.122955 319.040253,158.727219 323.967163,153.490219 
	C328.573578,148.593872 337.138977,148.362000 342.085815,152.999725 
	C347.407043,157.988434 347.590668,166.412094 341.886780,171.693665 
	C336.717163,176.480515 337.153534,182.487457 337.454163,188.342789 
	C338.267639,204.184021 340.774261,219.731186 347.225128,234.407684 
	C356.930908,256.489471 369.543945,276.101990 391.862915,287.646393 
	C395.707367,289.634918 398.309998,290.776794 401.646790,286.109192 
	C406.259430,279.656860 417.124146,279.908997 422.479736,285.670715 
	C428.117798,291.736359 427.331757,301.401764 420.786011,306.496094 
	C414.211731,311.612701 404.434235,310.382629 400.333740,303.021240 
	C397.720490,298.329742 394.954132,298.745422 391.114777,300.186584 
	C382.099701,303.570465 376.029358,310.336456 370.757233,317.956787 
	C359.939606,333.592621 354.617279,351.471008 350.451416,369.677795 
	C345.483032,391.391907 342.965454,413.522003 340.230011,435.609589 
	C338.574799,448.974731 337.729095,462.399719 336.454895,475.791626 
	C336.261078,477.828796 336.488464,480.911743 333.614349,480.791534 
	C330.935669,480.679535 331.079468,477.484497 330.905212,475.554352 
	C330.292480,468.767761 330.042908,461.947388 329.701935,455.137482 
	C327.995087,421.045135 323.645935,387.329315 314.505066,354.384003 
	C309.816895,337.487030 302.169647,322.002136 289.422302,309.563171 
	C284.534363,304.793488 279.170624,300.646637 272.203156,298.959076 
	C268.206390,297.990997 265.823151,298.553314 263.724152,302.491272 
	C260.510834,308.519867 253.807144,310.847076 247.385849,309.016937 
	C241.555649,307.355286 237.789001,302.313812 237.664017,296.004791 
	C237.525421,289.007812 240.752411,284.030304 246.711319,282.049896 
	C253.096603,279.927826 259.809570,281.869202 263.348083,287.691650 
	C265.551361,291.317047 267.732208,290.289154 270.385437,289.028259 
	C284.250397,282.438995 294.602478,271.946472 304.336517,260.262024 
	C321.505127,239.653381 328.507355,215.906281 328.821716,189.185638 
M297.590698,293.082520 
	C297.405487,295.745697 299.804260,295.448425 301.211761,296.045532 
	C313.708679,301.347168 322.854370,309.994476 328.516846,322.419556 
	C330.993042,327.852966 332.159393,333.702820 334.653046,340.510712 
	C339.037415,318.854858 348.663391,302.189514 368.907043,292.882233 
	C345.798126,285.162384 338.347321,266.819672 334.062531,245.176285 
	C330.318878,268.129181 320.747284,285.489563 297.590698,293.082520 
z"/>
<path fill="#000000" opacity="1.000000" stroke="none" 
	d="
M241.360153,312.729980 
	C251.284668,317.723450 260.565765,316.156403 267.097198,307.754486 
	C270.234039,303.719330 272.831085,305.337280 276.112915,306.691162 
	C279.998199,308.293945 279.495605,310.844543 278.376282,314.010620 
	C269.895813,337.998016 266.833832,363.106720 263.405670,388.111115 
	C261.081848,405.060669 258.925262,422.047852 258.289185,439.176819 
	C258.264709,439.835999 258.215363,440.549622 257.949097,441.133728 
	C257.238770,442.691986 257.752319,445.328766 255.336945,445.464508 
	C252.423126,445.628204 252.621643,442.919525 252.462799,441.078766 
	C251.791489,433.299255 251.177383,425.510864 250.761368,417.714020 
	C249.004059,384.779602 244.630508,352.234344 235.525406,320.484833 
	C229.873245,300.775696 220.710617,283.026215 204.065598,270.051453 
	C200.479111,267.255798 196.662842,264.900909 192.209015,263.847137 
	C188.016708,262.855255 184.610580,262.670197 181.762985,267.538910 
	C176.172073,277.097992 161.599823,276.268799 156.560577,266.576843 
	C153.244186,260.198456 155.120407,252.334747 160.888672,248.436707 
	C167.197372,244.173462 176.353195,244.993439 180.704651,251.034256 
	C183.674088,255.156525 186.447617,255.380676 190.340027,253.133057 
	C222.895859,234.334091 244.121277,207.627991 248.668488,169.361038 
	C249.549774,161.944534 250.104492,154.483887 250.608154,147.029968 
	C250.888824,142.876297 249.684830,139.466965 246.004410,136.668839 
	C240.252197,132.295563 239.831802,123.634071 244.552032,118.459534 
	C249.390091,113.155815 258.678345,112.866417 263.955353,117.854965 
	C269.206848,122.819405 269.396729,131.129105 263.765106,136.014435 
	C260.340149,138.985519 259.407257,142.344604 259.278046,146.513077 
	C258.266113,179.159622 269.241425,207.505829 289.837585,232.464264 
	C294.433105,238.033112 300.192871,242.286758 306.383179,247.111725 
	C298.571808,258.146545 290.944611,268.926208 279.776947,276.600464 
	C277.033691,278.485535 274.178833,280.214783 271.317413,281.918457 
	C269.930634,282.744141 268.460114,283.872437 266.855957,282.150726 
	C265.180054,280.351990 266.101166,278.857758 267.253754,277.282043 
	C272.875519,269.596405 279.977783,263.702667 288.538696,259.550415 
	C289.554871,259.057556 290.550293,258.521973 292.726349,257.405273 
	C269.684814,250.557404 260.357727,233.564651 255.625305,212.438797 
	C250.466370,235.573563 238.973679,252.616592 214.134140,258.087433 
	C223.615540,261.263214 232.272079,265.373566 239.400543,272.308716 
	C242.533646,275.356873 242.716324,276.986267 239.054947,279.937103 
	C227.834778,288.979889 228.870590,303.197937 241.360153,312.729980 
z"/>
<path fill="#000000" opacity="1.000000" stroke="none" 
	d="
M367.641235,206.540466 
	C380.518372,197.547195 394.348602,198.174805 408.210907,201.670578 
	C428.545105,206.798416 445.221985,217.352615 455.657806,236.220276 
	C464.752441,252.663025 464.163696,268.969421 454.682068,285.065369 
	C454.349396,285.630157 453.923737,286.155090 453.464874,286.623657 
	C453.265747,286.827026 452.872437,286.840210 452.056824,287.106415 
	C448.862366,273.129730 447.661621,258.643188 441.053406,245.503677 
	C443.511353,261.063995 443.915466,276.091675 432.840607,288.750977 
	C431.390045,288.503326 431.024506,287.794250 430.623810,287.032715 
	C424.717499,275.807159 417.090698,272.112793 404.825928,274.505066 
	C392.146667,276.978210 379.984131,267.188416 379.643250,254.381638 
	C379.470642,247.896271 378.825562,241.422180 378.705780,234.937225 
	C378.635162,231.116272 376.356201,230.508408 373.460693,230.634872 
	C371.482971,230.721237 369.522614,231.226089 367.556763,231.557297 
	C361.014709,232.659500 356.579926,227.836609 358.110168,221.229095 
	C359.477661,215.324463 362.722229,210.596512 367.641235,206.540466 
z"/>
<path fill="#000000" opacity="1.000000" stroke="none" 
	d="
M208.762909,326.291412 
	C212.028275,331.312012 215.080994,336.044220 218.224930,340.917877 
	C214.650864,344.859344 208.878235,345.091187 205.018539,350.407806 
	C211.603470,348.936066 217.087433,347.686493 222.582504,346.487732 
	C231.140808,344.620697 232.266403,345.345917 234.202164,353.839478 
	C236.880356,365.590515 236.805374,365.418213 225.970612,370.132080 
	C202.934479,380.154388 188.302109,397.384918 182.285278,421.850159 
	C181.932343,423.285217 181.462036,424.736633 180.764648,426.028351 
	C180.136383,427.192017 179.110672,428.195496 177.584641,428.088135 
	C175.725006,427.957336 175.838226,426.410095 175.605240,425.132874 
	C173.870911,415.625946 173.528229,405.981079 172.905579,396.373383 
	C172.699615,393.195038 172.573471,390.543762 168.929108,389.303223 
	C167.463013,388.804199 166.268646,387.352539 165.089218,386.193390 
	C160.808228,381.986115 160.765274,379.839691 165.206375,375.899261 
	C171.920975,369.941711 178.770828,364.136566 185.946167,357.935730 
	C183.799576,357.211578 182.744675,356.331299 183.386307,353.755035 
	C185.202225,346.464020 180.514053,341.535095 176.192184,336.679169 
	C174.866028,335.189117 172.972794,335.599701 171.054901,335.971191 
	C158.145370,338.471954 157.449524,338.098328 150.814743,326.660950 
	C147.272293,320.554321 145.113785,313.948761 143.543503,307.100311 
	C142.761642,303.690369 143.245697,301.212372 147.078995,300.213562 
	C151.653870,299.021545 153.175980,295.523071 153.617264,291.247833 
	C153.765808,289.808899 153.264633,288.247131 154.315704,286.950378 
	C155.623642,286.780426 156.059906,287.778229 156.534103,288.616119 
	C160.704102,295.984650 165.891739,302.028595 173.841309,305.925964 
	C179.926956,308.909546 182.128021,315.665344 184.774200,321.591187 
	C186.310623,325.031860 187.577423,328.592896 188.960541,332.087128 
	C192.419312,331.369110 192.459763,327.821381 194.744217,326.421967 
	C197.667221,329.042633 195.393570,332.643677 196.998535,335.886200 
	C200.703644,334.185516 202.179138,330.507477 204.581055,327.746429 
	C205.572754,326.606445 206.053802,323.873383 208.762909,326.291412 
z"/>
<path fill="#000000" opacity="1.000000" stroke="none" 
	d="
M150.350739,257.446594 
	C150.425064,260.518188 150.242355,263.137421 150.945663,265.794281 
	C151.706360,268.667908 154.153748,271.166809 153.535660,274.252441 
	C152.144791,281.196014 150.405548,288.069824 148.795731,295.025330 
	C141.172287,291.963409 135.044724,268.549103 137.853668,253.152267 
	C140.713104,237.478729 149.982666,225.696838 162.091110,215.722885 
	C160.507004,212.775955 157.651871,211.844589 155.558228,210.082672 
	C147.440811,203.251465 147.659866,195.984818 156.563278,190.252274 
	C167.449463,183.243134 179.450333,181.521378 192.391464,183.124863 
	C191.365463,185.671219 189.273453,185.624588 187.706390,186.274734 
	C182.144089,188.582458 176.752350,191.201431 172.116714,195.081238 
	C167.293900,199.117691 166.243515,203.647964 169.040482,207.156967 
	C170.773972,209.331787 172.754822,210.296082 175.559738,208.933060 
	C189.424957,202.195435 204.212967,199.490845 219.502701,199.264313 
	C223.587738,199.203766 227.681152,199.709381 231.661987,199.948547 
	C232.235703,202.520981 230.873505,203.971695 229.970093,205.451599 
	C219.682480,222.303940 205.768738,235.398773 188.584229,245.051666 
	C186.260712,246.356827 184.315887,247.283447 181.417511,245.153900 
	C168.106689,235.373871 154.110931,240.855423 150.350739,257.446594 
z"/>
<path fill="#000000" opacity="1.000000" stroke="none" 
	d="
M476.872253,367.744690 
	C468.597443,378.132019 458.055969,383.585602 445.324005,385.391083 
	C444.695435,382.568390 447.720459,381.220062 446.539642,378.354004 
	C437.263611,378.599335 428.236664,377.053070 421.069916,370.062134 
	C414.387421,363.543549 411.082214,355.253662 408.633240,346.708954 
	C407.573273,356.385162 409.925018,365.338562 415.335327,371.625824 
	C421.810333,379.150391 430.614227,380.946564 440.126068,381.621246 
	C434.899353,385.300140 429.228363,386.763702 423.059143,385.977234 
	C416.628143,385.157501 410.986115,382.513489 406.022522,378.269501 
	C396.094788,369.781097 390.531738,358.593048 385.615662,346.864868 
	C393.599731,343.601959 393.683960,343.601257 393.613403,335.049713 
	C393.558350,328.377167 393.809845,321.736847 394.664490,315.117065 
	C395.206177,310.921326 397.273712,309.868378 401.231354,311.572510 
	C406.050659,313.647705 409.228485,316.260223 410.717224,322.104950 
	C413.440613,332.797028 418.966370,342.493286 426.233215,350.901947 
	C439.973389,366.801208 455.382050,369.897705 474.677734,358.514496 
	C477.307037,356.963409 479.447540,354.490509 483.122864,353.664886 
	C482.535889,359.240265 479.723602,363.308655 476.872253,367.744690 
z"/>
<path fill="#000000" opacity="1.000000" stroke="none" 
	d="
M357.459045,403.595337 
	C360.530731,385.180389 363.664917,367.237946 372.618866,349.428558 
	C379.820801,365.981171 387.033295,381.148285 403.309235,388.521515 
	C386.436981,405.283325 369.913116,421.699036 353.144928,438.357483 
	C353.801361,426.947571 355.459045,415.473419 357.459045,403.595337 
z"/>
<path fill="#000000" opacity="1.000000" stroke="none" 
	d="
M164.922089,293.057465 
	C160.211731,288.154633 157.255173,282.719788 155.689072,276.626282 
	C157.440628,275.192993 158.521454,276.396759 159.630859,276.928436 
	C167.811630,280.848999 175.418671,280.645721 181.967285,273.701202 
	C183.582626,271.988159 185.096863,272.275574 186.892410,273.049347 
	C197.409088,277.581543 205.968491,284.497406 212.366318,294.014832 
	C213.463211,295.646576 214.606857,297.312592 213.850784,299.555481 
	C210.921143,308.246124 207.810379,316.854309 202.565002,324.483459 
	C201.559082,325.946564 200.563675,327.614685 198.305206,327.826324 
	C196.551300,325.903381 197.068665,322.589752 194.403717,321.047424 
	C192.654861,321.548950 192.765305,324.399109 190.454712,324.339447 
	C189.446915,323.700500 189.074249,322.605286 188.678940,321.510559 
	C185.253204,312.024048 180.030945,303.962860 171.150620,298.583771 
	C168.914230,297.229126 167.150620,295.094025 164.922089,293.057465 
z"/>
<path fill="#000000" opacity="1.000000" stroke="none" 
	d="
M435.004791,294.122192 
	C439.232513,288.721497 441.830658,282.824371 444.358459,276.364532 
	C446.706573,278.754852 445.925232,281.231323 446.116333,283.337585 
	C446.595337,288.617096 447.981903,293.104797 453.474487,295.252716 
	C455.294037,295.964233 456.273285,297.399689 456.359558,299.503296 
	C456.701508,307.842072 456.246979,316.118286 453.917145,324.156067 
	C452.089752,330.460449 445.666290,333.753296 436.875275,333.319336 
	C428.309723,332.896545 428.313538,332.897461 426.301270,341.380219 
	C426.158875,341.980408 425.900360,342.553009 425.430054,343.899353 
	C417.355957,336.142792 414.625458,326.699005 412.603302,316.147522 
	C418.070740,315.601105 423.172821,314.969482 426.804291,310.693298 
	C429.223297,307.844818 431.181671,304.857452 431.762054,301.104492 
	C432.149933,298.595978 432.906647,296.252167 435.004791,294.122192 
z"/>
<path fill="#000000" opacity="1.000000" stroke="none" 
	d="
M270.275909,142.271027 
	C275.807343,128.399612 287.717621,120.335075 297.102386,110.155807 
	C298.722046,108.399033 300.116943,107.201080 302.397705,109.518425 
	C312.443848,119.725761 322.606903,129.818039 332.706696,139.972763 
	C333.254944,140.524017 333.977020,141.115646 333.443542,142.505096 
	C329.149597,143.269379 324.692719,144.227127 321.076904,147.517563 
	C319.183533,149.240555 317.736023,147.085556 316.501587,145.884979 
	C312.084503,141.589035 307.646362,137.305099 303.430634,132.815292 
	C300.883698,130.102783 299.001434,130.267120 296.453674,132.883530 
	C288.089386,141.473373 279.554504,149.897675 271.040283,158.340332 
	C269.658478,159.710541 268.578735,161.511398 266.520905,162.088318 
	C262.883392,155.433517 264.000580,149.347763 270.275909,142.271027 
z"/>
<path fill="#000000" opacity="1.000000" stroke="none" 
	d="
M322.026306,468.857178 
	C322.240143,470.710236 321.621979,471.843719 320.640045,472.827850 
	C314.530243,478.951691 308.390961,485.046539 302.328613,491.216980 
	C300.676392,492.898682 299.297485,492.854462 297.685394,491.236115 
	C287.235596,480.746002 276.762390,470.279205 266.290405,459.811218 
	C265.150085,458.671356 264.573822,457.322601 264.917572,455.741760 
	C266.009003,450.722504 265.617889,445.479706 267.690308,439.119385 
	C278.595703,449.941162 289.053741,460.319061 299.741577,470.924957 
	C306.955170,465.322235 312.119202,458.077240 319.789978,452.437500 
	C320.597565,458.381683 321.281525,463.415771 322.026306,468.857178 
z"/>
<path fill="#000000" opacity="1.000000" stroke="none" 
	d="
M464.992676,306.445831 
	C466.928558,304.348511 468.620483,302.542633 470.145264,300.915161 
	C469.932251,300.149963 469.947632,299.673309 469.741241,299.540009 
	C459.196716,292.728851 464.303436,284.588470 467.783844,276.538727 
	C469.451813,276.029663 470.118103,277.480499 470.984863,278.333801 
	C477.157471,284.410858 483.172546,290.652222 489.462097,296.604218 
	C492.230042,299.223663 492.554169,301.028870 489.648865,303.887665 
	C474.688293,318.608704 459.916504,333.521515 445.047211,348.335602 
	C443.612030,349.765442 442.222839,352.278168 439.723907,350.154053 
	C436.896362,347.750702 434.395050,344.872650 434.948486,340.812347 
	C435.404236,337.468994 438.210022,337.672760 440.783386,337.641418 
	C450.461029,337.523621 458.706421,332.061981 461.136322,323.669342 
	C462.419861,319.235992 462.865021,314.555939 463.617401,309.975586 
	C463.809235,308.807922 463.947662,307.670319 464.992676,306.445831 
z"/>
<path fill="#000000" opacity="1.000000" stroke="none" 
	d="
M168.848114,348.075500 
	C171.013809,350.459625 172.578094,352.813324 173.753891,355.400543 
	C174.939194,358.008728 173.661102,359.794159 171.686035,361.413910 
	C169.386398,363.299835 168.072144,361.616791 166.657440,360.202209 
	C147.718109,341.264709 128.815338,322.290436 109.808243,303.421234 
	C107.514717,301.144379 107.351738,299.658905 109.766457,297.356842 
	C116.454407,290.980927 122.928230,284.380402 130.094894,277.264771 
	C131.999344,283.033905 133.190964,287.985046 134.671677,292.797516 
	C135.633865,295.924713 130.941299,297.099182 130.029831,300.489227 
	C132.998718,303.433685 133.527542,307.745667 134.759308,311.819855 
	C138.341370,323.667969 145.000198,333.718628 153.128769,342.926178 
	C155.431198,345.534271 158.184464,346.349945 161.167618,345.394806 
	C164.462677,344.339844 166.615860,345.473633 168.848114,348.075500 
z"/>
<path fill="#000000" opacity="1.000000" stroke="none" 
	d="
M308.991791,424.278351 
	C297.411621,420.576111 287.452026,414.888794 279.095673,406.330536 
	C275.102417,402.240784 272.879333,397.927155 273.635254,392.128052 
	C274.788696,383.279388 275.657013,374.389313 278.366241,364.558472 
	C286.373596,371.693481 292.903931,378.907532 298.300659,387.838776 
	C294.959808,388.507233 293.330383,385.367462 290.249023,385.663666 
	C293.120697,399.036163 299.251221,410.561127 308.307861,420.612213 
	C310.105286,422.607025 310.121216,422.592651 308.991791,424.278351 
z"/>
<path fill="#000000" opacity="1.000000" stroke="none" 
	d="
M225.738281,419.261810 
	C219.271240,412.815033 213.054474,406.617981 206.504654,400.088928 
	C211.222183,396.549683 216.145538,395.482178 221.164902,394.740753 
	C223.205719,394.439301 224.576477,395.826660 225.879532,397.126099 
	C230.237289,401.471649 234.476486,405.941498 238.951797,410.161530 
	C241.326614,412.400848 241.207275,415.089417 241.428909,417.923462 
	C241.872665,423.598297 242.594818,429.251312 243.202026,434.913361 
	C242.800583,435.126038 242.399139,435.338684 241.997696,435.551331 
	C236.661316,430.204742 231.324936,424.858124 225.738281,419.261810 
z"/>
<path fill="#000000" opacity="1.000000" stroke="none" 
	d="
M364.368225,171.631836 
	C371.232056,178.364136 377.846863,184.845444 385.337311,192.184723 
	C378.877075,194.021774 373.366364,194.123901 368.512970,196.571838 
	C367.244110,197.211807 366.180695,195.586792 365.261047,194.675903 
	C359.829071,189.295776 354.481903,183.828827 348.991882,178.509125 
	C346.965820,176.545929 346.541290,174.917007 348.526154,172.605072 
	C351.476379,169.168640 351.345245,164.659912 353.343933,159.321152 
	C356.935699,163.341064 360.527466,167.360962 364.368225,171.631836 
z"/>
<path fill="#000000" opacity="1.000000" stroke="none" 
	d="
M221.212585,307.961548 
	C226.086151,318.726685 229.498840,329.527740 231.560837,341.219543 
	C227.180237,341.439880 224.710403,339.072357 222.259415,337.075226 
	C217.711502,333.369720 214.315002,328.604645 210.988937,323.814697 
	C209.983078,322.366119 209.387360,320.919128 210.425369,319.208374 
	C213.426331,314.262360 215.891617,309.054688 217.492416,303.079285 
	C219.930328,304.217255 220.204758,306.147430 221.212585,307.961548 
z"/>
<path fill="#000000" opacity="1.000000" stroke="none" 
	d="
M231.640610,175.640778 
	C235.581055,171.700943 239.273163,168.012772 242.965286,164.324600 
	C243.495621,164.618927 244.025955,164.913254 244.556290,165.207596 
	C241.721085,174.058014 244.627533,184.259842 237.191910,192.025864 
	C236.157547,193.106186 235.084290,194.583527 233.481033,194.199875 
	C227.508240,192.770538 221.362839,193.732269 214.105377,192.961655 
	C220.380493,186.765564 225.886383,181.328995 231.640610,175.640778 
z"/>
<path fill="#000000" opacity="1.000000" stroke="none" 
	d="
M232.797363,383.221008 
	C229.172714,383.197571 226.020721,383.170746 222.868896,383.184540 
	C221.448944,383.190796 220.213730,382.840790 219.500473,381.520630 
	C218.677811,379.998016 219.791214,379.056549 220.658081,378.067688 
	C223.338272,375.010193 226.649338,372.841644 230.385895,371.325989 
	C232.665039,370.401489 235.143753,370.116394 236.800064,372.227203 
	C238.805649,374.783142 239.373215,378.109802 238.763031,381.140839 
	C238.227249,383.802246 235.382401,383.186279 232.797363,383.221008 
z"/>
<path fill="#000000" opacity="1.000000" stroke="none" 
	d="
M384.446594,328.569702 
	C386.816833,325.887421 388.687927,323.162872 392.235992,321.617767 
	C393.255188,328.113190 391.216522,333.848083 391.067688,339.686127 
	C391.025574,341.337952 389.443054,341.347076 387.968231,341.034424 
	C381.510193,339.665558 379.911774,336.244049 383.148895,330.522003 
	C383.473785,329.947723 383.858154,329.407043 384.446594,328.569702 
z"/>
<path fill="#000000" opacity="1.000000" stroke="none" 
	d="
M373.834412,233.249359 
	C375.127380,232.729935 376.467957,232.504990 376.415771,233.878510 
	C376.205750,239.410461 376.688721,245.026184 375.204041,251.503891 
	C370.053802,247.496750 367.638611,242.796295 365.135559,238.000916 
	C367.570251,235.301849 370.844269,234.877548 373.834412,233.249359 
z"/>
</svg>